<svg xmlns="http://www.w3.org/2000/svg" viewBox="0 0 80 80" width="80" height="80">
  
  <path d="M 8 14 Q 8 8 14 8 L 50 8 Q 56 8 56 14 L 56 36 Q 56 42 50 42 L 24 42 L 16 50 L 16 42 L 14 42 Q 8 42 8 36 Z" fill="none" stroke="#00D9A6" stroke-width="3" stroke-linejoin="round" opacity="0.5"></path>
  <path d="M 26 34 Q 26 28 32 28 L 68 28 Q 74 28 74 34 L 74 56 Q 74 62 68 62 L 66 62 L 66 72 L 56 62 L 32 62 Q 26 62 26 56 Z" fill="#00D9A6"></path>
  <circle cx="44" cy="45" r="3" fill="#0E1117"></circle>
  <circle cx="54" cy="45" r="3" fill="#0E1117"></circle>
  <circle cx="64" cy="45" r="3" fill="#0E1117"></circle>
</svg>