<svg xmlns="http://www.w3.org/2000/svg" viewBox="0 0 320 80" width="320" height="80">
  <defs>
    <linearGradient id="wmBack" x1="0" y1="0" x2="1" y2="1"><stop offset="0" stop-color="#00805F"></stop><stop offset="1" stop-color="#00A982"></stop></linearGradient>
    <linearGradient id="wmFront" x1="0" y1="0" x2="1" y2="1"><stop offset="0" stop-color="#33D5A7"></stop><stop offset="1" stop-color="#00D9A6"></stop></linearGradient>
  </defs>
  
  <g transform="translate(8,8)">
    <path d="M 8 14 Q 8 8 14 8 L 50 8 Q 56 8 56 14 L 56 36 Q 56 42 50 42 L 24 42 L 16 50 L 16 42 L 14 42 Q 8 42 8 36 Z" fill="url(#wmBack)"></path>
    <path d="M 26 34 Q 26 28 32 28 L 68 28 Q 74 28 74 34 L 74 56 Q 74 62 68 62 L 66 62 L 66 72 L 56 62 L 32 62 Q 26 62 26 56 Z" fill="url(#wmFront)"></path>
    <circle cx="44" cy="45" r="3" fill="#0E1117" opacity="0.6"></circle>
    <circle cx="54" cy="45" r="3" fill="#0E1117" opacity="0.6"></circle>
    <circle cx="64" cy="45" r="3" fill="#0E1117" opacity="0.6"></circle>
  </g>
  
  <g transform="translate(108,0)">
    <text x="0" y="56" font-family="Inter, -apple-system, BlinkMacSystemFont, Segoe UI, Roboto, sans-serif" font-weight="700" font-size="40" letter-spacing="-1.4" fill="#E6EDF3">sidcord</text>
    
    <circle cx="26" cy="28" r="4" fill="#00D9A6"></circle>
  </g>
</svg>